<?xml version="1.0" encoding="utf-8"?>
<!-- Generator: Adobe Illustrator 21.0.2, SVG Export Plug-In . SVG Version: 6.00 Build 0)  -->
<svg version="1.1" id="Layer_1" xmlns="http://www.w3.org/2000/svg" xmlns:xlink="http://www.w3.org/1999/xlink" x="0px" y="0px"
	 viewBox="0 0 105 51" style="enable-background:new 0 0 105 51;" xml:space="preserve">
<style type="text/css">
	.st0{fill:#34ADC6;}
</style>
<g>
	<path class="st0" d="M3.4,38.5V3.2h92.1l5.2,43.5L3.4,38.5z M0-0.2v41.9l104.6,8.8L98.5-0.2H0z"/>
	<polygon class="st0" points="13.4,12.3 16.2,12.3 19.9,23 20,23 23.7,12.3 26.5,12.3 26.5,32.6 23.6,32.6 23.6,20.3 23.5,20.3 
		20.7,28.9 19.2,28.9 16.4,20.3 16.3,20.3 16.3,32.6 13.4,32.6 	"/>
	<path class="st0" d="M33.6,18.2L33.6,18.2l-1.5,7.3h2.9L33.6,18.2z M32.4,12.3h2.4l4.5,20.2h-2.9l-0.9-4.3h-3.9l-0.9,4.3h-2.9
		L32.4,12.3z"/>
	<polygon class="st0" points="40.8,12.3 43.7,12.3 43.7,29.7 49.4,29.7 49.4,32.6 40.8,32.6 	"/>
	<g>
		<path class="st0" d="M54.2,29.7h1.3c2.3,0,2.5-1.4,2.5-3.4c0-2-0.4-3.1-2.5-3.1h-1.3V29.7z M54.2,20.6h1.3c1.9,0,2.4-1,2.4-2.8
			c0-1.8-0.7-2.7-2.6-2.7h-1.2V20.6z M51.3,12.3h4.2c3.8,0,5.1,2.5,5.1,5.1v0.7c0,2.2-0.7,3-2,3.8c1.4,0.7,2,1.9,2,4V27
			c0,3.5-1.7,5.5-5.4,5.5h-3.9V12.3z"/>
		<path class="st0" d="M72.8,28c0,2.6-2.1,4.7-4.7,4.7s-4.7-2.1-4.7-4.7V12.3h2.9v15.4c0,1.4,0.8,2.1,1.8,2.1c1,0,1.8-0.7,1.8-2.1
			V12.3h2.9V28z"/>
		<path class="st0" d="M78.4,29.8h1.3c1.6,0,2.2-0.8,2.2-2.5v-9.7c0-1.6-0.5-2.5-2.2-2.5h-1.3V29.8z M75.5,12.3h4.3
			c3.3,0,5.1,2,5.1,5.2V27c0,3.8-1.9,5.5-5.3,5.5h-4V12.3z"/>
	</g>
	<polygon class="st0" points="88.9,14.4 87,15.6 87,13.5 88.9,12.3 91.1,12.3 91.1,24.4 88.9,24.4 	"/>
</g>
</svg>
