<?xml version="1.0" encoding="UTF-8" standalone="no"?>
<!DOCTYPE svg PUBLIC "-//W3C//DTD SVG 1.1//EN" "http://www.w3.org/Graphics/SVG/1.1/DTD/svg11.dtd">
<svg width="100%" height="100%" viewBox="0 0 2078 568" version="1.1" xmlns="http://www.w3.org/2000/svg" xmlns:xlink="http://www.w3.org/1999/xlink" xml:space="preserve" xmlns:serif="http://www.serif.com/" style="fill-rule:evenodd;clip-rule:evenodd;stroke-linejoin:round;stroke-miterlimit:2;">
    <g transform="matrix(1,0,0,1,-724.299,-135.051)">
        <g transform="matrix(333.333,0,0,333.333,1393.57,544.216)">
            <path d="M0.47,-0.166L0.195,-0.166L0.137,-0L0.009,-0L0.277,-0.711L0.388,-0.711L0.657,-0L0.528,-0L0.47,-0.166ZM0.229,-0.265L0.436,-0.265L0.333,-0.56L0.229,-0.265Z" style="fill:rgb(42,42,42);fill-rule:nonzero;"/>
        </g>
        <g transform="matrix(250,0,0,250,1615.41,544.216)">
            <path d="M0.333,-0.274L0.196,-0.274L0.196,-0L0.072,-0L0.072,-0.711L0.322,-0.711C0.404,-0.711 0.468,-0.693 0.512,-0.656C0.557,-0.619 0.579,-0.566 0.579,-0.496C0.579,-0.449 0.568,-0.409 0.545,-0.377C0.522,-0.345 0.49,-0.32 0.449,-0.303L0.608,-0.006L0.608,-0L0.476,-0L0.333,-0.274ZM0.196,-0.373L0.323,-0.373C0.364,-0.373 0.397,-0.384 0.42,-0.405C0.444,-0.426 0.456,-0.454 0.456,-0.491C0.456,-0.529 0.445,-0.558 0.423,-0.579C0.401,-0.6 0.369,-0.611 0.326,-0.611L0.196,-0.611L0.196,-0.373Z" style="fill:rgb(42,42,42);fill-rule:nonzero;"/>
        </g>
        <g transform="matrix(250,0,0,250,1765.31,544.216)">
            <path d="M0.586,-0.611L0.364,-0.611L0.364,-0L0.242,-0L0.242,-0.611L0.022,-0.611L0.022,-0.711L0.586,-0.711L0.586,-0.611Z" style="fill:rgb(42,42,42);fill-rule:nonzero;"/>
        </g>
        <g transform="matrix(250,0,0,250,1917.05,544.216)">
            <path d="M0.592,-0.711L0.592,-0.236C0.592,-0.16 0.568,-0.101 0.52,-0.056C0.471,-0.012 0.407,0.01 0.327,0.01C0.245,0.01 0.181,-0.012 0.133,-0.055C0.085,-0.099 0.061,-0.159 0.061,-0.236L0.061,-0.711L0.184,-0.711L0.184,-0.235C0.184,-0.188 0.196,-0.152 0.22,-0.126C0.244,-0.101 0.28,-0.089 0.327,-0.089C0.422,-0.089 0.469,-0.139 0.469,-0.239L0.469,-0.711L0.592,-0.711Z" style="fill:rgb(42,42,42);fill-rule:nonzero;"/>
        </g>
        <g transform="matrix(250,0,0,250,2080.01,544.216)">
            <path d="M0.333,-0.274L0.196,-0.274L0.196,-0L0.072,-0L0.072,-0.711L0.322,-0.711C0.404,-0.711 0.468,-0.693 0.512,-0.656C0.557,-0.619 0.579,-0.566 0.579,-0.496C0.579,-0.449 0.568,-0.409 0.545,-0.377C0.522,-0.345 0.49,-0.32 0.449,-0.303L0.608,-0.006L0.608,-0L0.476,-0L0.333,-0.274ZM0.196,-0.373L0.323,-0.373C0.364,-0.373 0.397,-0.384 0.42,-0.405C0.444,-0.426 0.456,-0.454 0.456,-0.491C0.456,-0.529 0.445,-0.558 0.423,-0.579C0.401,-0.6 0.369,-0.611 0.326,-0.611L0.196,-0.611L0.196,-0.373Z" style="fill:rgb(42,42,42);fill-rule:nonzero;"/>
        </g>
        <g transform="matrix(333.333,0,0,333.333,2236.02,544.216)">
            <path d="M0.47,-0.166L0.195,-0.166L0.137,-0L0.009,-0L0.277,-0.711L0.388,-0.711L0.657,-0L0.528,-0L0.47,-0.166ZM0.229,-0.265L0.436,-0.265L0.333,-0.56L0.229,-0.265Z" style="fill:rgb(42,42,42);fill-rule:nonzero;"/>
        </g>
        <g transform="matrix(250,0,0,250,2457.86,544.216)">
            <path d="M0.636,-0L0.513,-0L0.196,-0.504L0.196,-0L0.072,-0L0.072,-0.711L0.196,-0.711L0.514,-0.205L0.514,-0.711L0.636,-0.711L0.636,-0Z" style="fill:rgb(42,42,42);fill-rule:nonzero;"/>
        </g>
        <g transform="matrix(250,0,0,250,2637.55,544.216)">
            <path d="M0.47,-0.166L0.195,-0.166L0.137,-0L0.009,-0L0.277,-0.711L0.388,-0.711L0.657,-0L0.528,-0L0.47,-0.166ZM0.229,-0.265L0.436,-0.265L0.333,-0.56L0.229,-0.265Z" style="fill:rgb(42,42,42);fill-rule:nonzero;"/>
        </g>
    </g>
    <g id="_6" serif:id="6" transform="matrix(1,0,0,1,-20.4471,-1540.1)">
        <g transform="matrix(0.841598,0,0,0.841598,-341.876,721.457)">
            <path d="M769.817,1015.38C937.7,1015.38 1074,1151.68 1074,1319.57C1074,1487.45 937.7,1623.75 769.817,1623.75C601.934,1623.75 465.634,1487.45 465.634,1319.57C465.634,1151.68 601.934,1015.38 769.817,1015.38ZM769.817,1020.13C604.557,1020.13 470.386,1154.3 470.386,1319.57C470.386,1484.83 604.557,1619 769.817,1619C935.077,1619 1069.25,1484.83 1069.25,1319.57C1069.25,1154.3 935.077,1020.13 769.817,1020.13Z" style="fill:rgb(42,42,42);"/>
        </g>
        <g transform="matrix(0.841598,0,0,0.841598,-331.876,731.457)">
            <path d="M769.817,1015.38C937.7,1015.38 1074,1151.68 1074,1319.57C1074,1487.45 937.7,1623.75 769.817,1623.75C601.934,1623.75 465.634,1487.45 465.634,1319.57C465.634,1151.68 601.934,1015.38 769.817,1015.38ZM769.817,1020.13C604.557,1020.13 470.386,1154.3 470.386,1319.57C470.386,1484.83 604.557,1619 769.817,1619C935.077,1619 1069.25,1484.83 1069.25,1319.57C1069.25,1154.3 935.077,1020.13 769.817,1020.13Z" style="fill:rgb(42,42,42);"/>
        </g>
        <g transform="matrix(0.841598,0,0,0.841598,-321.876,721.457)">
            <path d="M769.817,1015.38C937.7,1015.38 1074,1151.68 1074,1319.57C1074,1487.45 937.7,1623.75 769.817,1623.75C601.934,1623.75 465.634,1487.45 465.634,1319.57C465.634,1151.68 601.934,1015.38 769.817,1015.38ZM769.817,1020.13C604.557,1020.13 470.386,1154.3 470.386,1319.57C470.386,1484.83 604.557,1619 769.817,1619C935.077,1619 1069.25,1484.83 1069.25,1319.57C1069.25,1154.3 935.077,1020.13 769.817,1020.13Z" style="fill:rgb(42,42,42);"/>
        </g>
        <g transform="matrix(0.841598,0,0,0.841598,-341.876,711.457)">
            <path d="M769.817,1015.38C937.7,1015.38 1074,1151.68 1074,1319.57C1074,1487.45 937.7,1623.75 769.817,1623.75C601.934,1623.75 465.634,1487.45 465.634,1319.57C465.634,1151.68 601.934,1015.38 769.817,1015.38ZM769.817,1020.13C604.557,1020.13 470.386,1154.3 470.386,1319.57C470.386,1484.83 604.557,1619 769.817,1619C935.077,1619 1069.25,1484.83 1069.25,1319.57C1069.25,1154.3 935.077,1020.13 769.817,1020.13Z" style="fill:rgb(42,42,42);"/>
        </g>
        <g transform="matrix(0.841598,0,0,0.841598,-331.876,711.457)">
            <path d="M769.817,1015.38C937.7,1015.38 1074,1151.68 1074,1319.57C1074,1487.45 937.7,1623.75 769.817,1623.75C601.934,1623.75 465.634,1487.45 465.634,1319.57C465.634,1151.68 601.934,1015.38 769.817,1015.38ZM769.817,1020.13C604.557,1020.13 470.386,1154.3 470.386,1319.57C470.386,1484.83 604.557,1619 769.817,1619C935.077,1619 1069.25,1484.83 1069.25,1319.57C1069.25,1154.3 935.077,1020.13 769.817,1020.13Z" style="fill:rgb(42,42,42);"/>
        </g>
        <g transform="matrix(0.947802,0,0,0.947802,23.6176,85.5397)">
            <g>
                <g transform="matrix(1,0,0,1,-544.657,589.201)">
                    <g transform="matrix(312.5,0,0,312.5,696.592,1242.25)">
                        <path d="M-0.144,0.183C-0.175,0.183 -0.19,0.173 -0.19,0.154C-0.19,0.14 -0.186,0.13 -0.178,0.124C-0.18,0.13 -0.181,0.136 -0.181,0.143C-0.181,0.161 -0.168,0.17 -0.143,0.17C-0.099,0.17 -0.048,0.148 0.009,0.105C0.003,0.102 -0.003,0.098 -0.008,0.095C-0.012,0.092 -0.017,0.089 -0.022,0.086C-0.067,0.119 -0.103,0.135 -0.13,0.135C-0.135,0.135 -0.137,0.134 -0.137,0.131C-0.137,0.126 -0.134,0.124 -0.127,0.123C-0.11,0.117 -0.093,0.11 -0.078,0.102C-0.063,0.094 -0.048,0.085 -0.034,0.075C-0.054,0.056 -0.064,0.036 -0.064,0.015C-0.064,-0.024 -0.034,-0.058 0.027,-0.088C0.048,-0.099 0.071,-0.109 0.094,-0.117C0.117,-0.124 0.142,-0.13 0.168,-0.135C0.215,-0.196 0.256,-0.259 0.292,-0.322C0.327,-0.385 0.357,-0.448 0.381,-0.511C0.384,-0.517 0.388,-0.529 0.394,-0.548C0.399,-0.566 0.406,-0.59 0.415,-0.619C0.416,-0.624 0.418,-0.626 0.423,-0.626C0.424,-0.625 0.424,-0.625 0.424,-0.624C0.424,-0.571 0.394,-0.487 0.334,-0.373C0.311,-0.328 0.287,-0.286 0.263,-0.247C0.238,-0.208 0.214,-0.172 0.191,-0.139C0.198,-0.14 0.206,-0.141 0.214,-0.142C0.222,-0.143 0.23,-0.143 0.239,-0.144C0.264,-0.179 0.289,-0.216 0.312,-0.254C0.335,-0.291 0.357,-0.33 0.379,-0.371C0.407,-0.424 0.428,-0.471 0.443,-0.51C0.457,-0.549 0.464,-0.581 0.464,-0.606C0.464,-0.637 0.45,-0.654 0.423,-0.658C0.417,-0.659 0.414,-0.661 0.414,-0.664C0.414,-0.668 0.418,-0.67 0.425,-0.67C0.449,-0.67 0.468,-0.662 0.482,-0.647C0.495,-0.63 0.502,-0.61 0.502,-0.586C0.502,-0.558 0.495,-0.525 0.482,-0.488C0.469,-0.45 0.449,-0.407 0.423,-0.359C0.403,-0.323 0.381,-0.288 0.358,-0.253C0.335,-0.218 0.31,-0.183 0.284,-0.148C0.295,-0.149 0.311,-0.151 0.33,-0.152C0.349,-0.153 0.371,-0.154 0.398,-0.155C0.415,-0.156 0.427,-0.156 0.436,-0.157C0.445,-0.157 0.45,-0.157 0.451,-0.157L0.45,-0.157L0.451,-0.157C0.455,-0.157 0.457,-0.156 0.457,-0.154C0.457,-0.148 0.451,-0.144 0.439,-0.143C0.433,-0.143 0.425,-0.143 0.416,-0.142C0.407,-0.141 0.396,-0.14 0.384,-0.139C0.36,-0.138 0.339,-0.136 0.32,-0.135C0.301,-0.133 0.284,-0.131 0.269,-0.129C0.228,-0.079 0.189,-0.034 0.15,0.005C0.111,0.044 0.073,0.077 0.036,0.105C0.054,0.114 0.084,0.122 0.125,0.129C0.131,0.13 0.134,0.132 0.134,0.135C0.134,0.138 0.131,0.14 0.124,0.14C0.098,0.14 0.065,0.131 0.026,0.113C-0.039,0.16 -0.096,0.183 -0.144,0.183ZM0.608,0.122C0.585,0.122 0.561,0.112 0.535,0.091C0.51,0.071 0.493,0.049 0.482,0.025C0.475,0.009 0.469,-0.01 0.466,-0.032C0.463,-0.053 0.461,-0.078 0.461,-0.106C0.461,-0.123 0.463,-0.154 0.467,-0.199C0.47,-0.244 0.476,-0.302 0.485,-0.373C0.486,-0.378 0.487,-0.388 0.489,-0.404C0.49,-0.42 0.492,-0.442 0.494,-0.469C0.495,-0.481 0.497,-0.487 0.501,-0.487C0.507,-0.487 0.51,-0.48 0.511,-0.466L0.511,-0.307C0.511,-0.131 0.525,-0.011 0.554,0.053C0.571,0.092 0.591,0.112 0.614,0.112C0.643,0.112 0.676,0.083 0.713,0.026C0.712,0.037 0.705,0.052 0.692,0.07C0.685,0.079 0.679,0.086 0.673,0.093C0.666,0.1 0.66,0.105 0.655,0.108C0.638,0.117 0.623,0.122 0.608,0.122ZM0.02,0.097C0.052,0.072 0.085,0.041 0.119,0.004C0.152,-0.034 0.187,-0.075 0.222,-0.122C0.213,-0.12 0.204,-0.118 0.195,-0.116C0.186,-0.113 0.177,-0.111 0.168,-0.108C0.138,-0.069 0.108,-0.035 0.079,-0.005C0.05,0.026 0.021,0.052 -0.007,0.074C-0.004,0.079 0,0.083 0.006,0.087C0.011,0.09 0.015,0.094 0.02,0.097ZM-0.015,0.061C0.036,0.02 0.088,-0.033 0.142,-0.1C0.123,-0.093 0.104,-0.086 0.087,-0.077C0.07,-0.068 0.054,-0.059 0.04,-0.049C0,-0.022 -0.02,0.006 -0.02,0.036C-0.02,0.044 -0.018,0.052 -0.015,0.061Z" style="fill:rgb(42,42,42);fill-rule:nonzero;"/>
                    </g>
                </g>
                <g transform="matrix(1,0,0,1,-425.973,722.483)">
                    <g transform="matrix(312.5,0,0,312.5,696.592,1242.25)">
                        <path d="M-0.144,0.183C-0.175,0.183 -0.19,0.173 -0.19,0.154C-0.19,0.14 -0.186,0.13 -0.178,0.124C-0.18,0.13 -0.181,0.136 -0.181,0.143C-0.181,0.161 -0.168,0.17 -0.143,0.17C-0.099,0.17 -0.048,0.148 0.009,0.105C0.003,0.102 -0.003,0.098 -0.008,0.095C-0.012,0.092 -0.017,0.089 -0.022,0.086C-0.067,0.119 -0.103,0.135 -0.13,0.135C-0.135,0.135 -0.137,0.134 -0.137,0.131C-0.137,0.126 -0.134,0.124 -0.127,0.123C-0.11,0.117 -0.093,0.11 -0.078,0.102C-0.063,0.094 -0.048,0.085 -0.034,0.075C-0.054,0.056 -0.064,0.036 -0.064,0.015C-0.064,-0.024 -0.034,-0.058 0.027,-0.088C0.048,-0.099 0.071,-0.109 0.094,-0.117C0.117,-0.124 0.142,-0.13 0.168,-0.135C0.215,-0.196 0.256,-0.259 0.292,-0.322C0.327,-0.385 0.357,-0.448 0.381,-0.511C0.384,-0.517 0.388,-0.529 0.394,-0.548C0.399,-0.566 0.406,-0.59 0.415,-0.619C0.416,-0.624 0.418,-0.626 0.423,-0.626C0.424,-0.625 0.424,-0.625 0.424,-0.624C0.424,-0.571 0.394,-0.487 0.334,-0.373C0.311,-0.328 0.287,-0.286 0.263,-0.247C0.238,-0.208 0.214,-0.172 0.191,-0.139C0.198,-0.14 0.206,-0.141 0.214,-0.142C0.222,-0.143 0.23,-0.143 0.239,-0.144C0.264,-0.179 0.289,-0.216 0.312,-0.254C0.335,-0.291 0.357,-0.33 0.379,-0.371C0.407,-0.424 0.428,-0.471 0.443,-0.51C0.457,-0.549 0.464,-0.581 0.464,-0.606C0.464,-0.637 0.45,-0.654 0.423,-0.658C0.417,-0.659 0.414,-0.661 0.414,-0.664C0.414,-0.668 0.418,-0.67 0.425,-0.67C0.449,-0.67 0.468,-0.662 0.482,-0.647C0.495,-0.63 0.502,-0.61 0.502,-0.586C0.502,-0.558 0.495,-0.525 0.482,-0.488C0.469,-0.45 0.449,-0.407 0.423,-0.359C0.403,-0.323 0.381,-0.288 0.358,-0.253C0.335,-0.218 0.31,-0.183 0.284,-0.148C0.295,-0.149 0.311,-0.151 0.33,-0.152C0.349,-0.153 0.371,-0.154 0.398,-0.155C0.415,-0.156 0.427,-0.156 0.436,-0.157C0.445,-0.157 0.45,-0.157 0.451,-0.157L0.45,-0.157L0.451,-0.157C0.455,-0.157 0.457,-0.156 0.457,-0.154C0.457,-0.148 0.451,-0.144 0.439,-0.143C0.433,-0.143 0.425,-0.143 0.416,-0.142C0.407,-0.141 0.396,-0.14 0.384,-0.139C0.36,-0.138 0.339,-0.136 0.32,-0.135C0.301,-0.133 0.284,-0.131 0.269,-0.129C0.228,-0.079 0.189,-0.034 0.15,0.005C0.111,0.044 0.073,0.077 0.036,0.105C0.054,0.114 0.084,0.122 0.125,0.129C0.131,0.13 0.134,0.132 0.134,0.135C0.134,0.138 0.131,0.14 0.124,0.14C0.098,0.14 0.065,0.131 0.026,0.113C-0.039,0.16 -0.096,0.183 -0.144,0.183ZM0.608,0.122C0.585,0.122 0.561,0.112 0.535,0.091C0.51,0.071 0.493,0.049 0.482,0.025C0.475,0.009 0.469,-0.01 0.466,-0.032C0.463,-0.053 0.461,-0.078 0.461,-0.106C0.461,-0.123 0.463,-0.154 0.467,-0.199C0.47,-0.244 0.476,-0.302 0.485,-0.373C0.486,-0.378 0.487,-0.388 0.489,-0.404C0.49,-0.42 0.492,-0.442 0.494,-0.469C0.495,-0.481 0.497,-0.487 0.501,-0.487C0.507,-0.487 0.51,-0.48 0.511,-0.466L0.511,-0.307C0.511,-0.131 0.525,-0.011 0.554,0.053C0.571,0.092 0.591,0.112 0.614,0.112C0.643,0.112 0.676,0.083 0.713,0.026C0.712,0.037 0.705,0.052 0.692,0.07C0.685,0.079 0.679,0.086 0.673,0.093C0.666,0.1 0.66,0.105 0.655,0.108C0.638,0.117 0.623,0.122 0.608,0.122ZM0.02,0.097C0.052,0.072 0.085,0.041 0.119,0.004C0.152,-0.034 0.187,-0.075 0.222,-0.122C0.213,-0.12 0.204,-0.118 0.195,-0.116C0.186,-0.113 0.177,-0.111 0.168,-0.108C0.138,-0.069 0.108,-0.035 0.079,-0.005C0.05,0.026 0.021,0.052 -0.007,0.074C-0.004,0.079 0,0.083 0.006,0.087C0.011,0.09 0.015,0.094 0.02,0.097ZM-0.015,0.061C0.036,0.02 0.088,-0.033 0.142,-0.1C0.123,-0.093 0.104,-0.086 0.087,-0.077C0.07,-0.068 0.054,-0.059 0.04,-0.049C0,-0.022 -0.02,0.006 -0.02,0.036C-0.02,0.044 -0.018,0.052 -0.015,0.061Z" style="fill:rgb(42,42,42);fill-rule:nonzero;"/>
                    </g>
                </g>
            </g>
        </g>
    </g>
    <g transform="matrix(0.925704,0,0,0.925704,234.171,-1457.38)">
        <circle cx="112.248" cy="1591.42" r="5.401" style="fill:rgb(42,42,42);"/>
    </g>
    <g transform="matrix(0.925704,0,0,0.925704,36.5273,-1352.16)">
        <circle cx="112.248" cy="1591.42" r="5.401" style="fill:rgb(42,42,42);"/>
    </g>
    <g transform="matrix(0.925704,0,0,0.925704,463.1,-1270.67)">
        <circle cx="112.248" cy="1591.42" r="5.401" style="fill:rgb(42,42,42);"/>
    </g>
    <g transform="matrix(0.925704,0,0,0.925704,-29.7717,-1006.49)">
        <circle cx="112.248" cy="1591.42" r="5.401" style="fill:rgb(42,42,42);"/>
    </g>
    <g transform="matrix(0.925704,0,0,0.925704,303.938,-996.489)">
        <circle cx="112.248" cy="1591.42" r="5.401" style="fill:rgb(42,42,42);"/>
    </g>
    <g transform="matrix(0.925704,0,0,0.925704,122.207,-910.283)">
        <circle cx="112.248" cy="1591.42" r="5.401" style="fill:rgb(42,42,42);"/>
    </g>
    <g transform="matrix(0.925704,0,0,0.925704,-98.9082,-1160.31)">
        <circle cx="112.248" cy="1591.42" r="5.401" style="fill:rgb(42,42,42);"/>
    </g>
    <g transform="matrix(0.925704,0,0,0.925704,424.904,-1026.96)">
        <circle cx="112.248" cy="1591.42" r="5.401" style="fill:rgb(42,42,42);"/>
    </g>
    <g transform="matrix(1.38856,0,0,1.38856,305.963,-2067.58)">
        <circle cx="112.248" cy="1591.42" r="5.401" style="fill:rgb(42,42,42);"/>
    </g>
    <g transform="matrix(1.38856,0,0,1.38856,-37.0564,-1769.21)">
        <circle cx="112.248" cy="1591.42" r="5.401" style="fill:rgb(42,42,42);"/>
    </g>
    <g transform="matrix(1.38856,0,0,1.38856,236.946,-1717.44)">
        <circle cx="112.248" cy="1591.42" r="5.401" style="fill:rgb(42,42,42);"/>
    </g>
    <g transform="matrix(1.38856,0,0,1.38856,-141.706,-1920.56)">
        <circle cx="112.248" cy="1591.42" r="5.401" style="fill:rgb(42,42,42);"/>
    </g>
    <g transform="matrix(1.38856,0,0,1.38856,-17.9268,-2156.86)">
        <circle cx="112.248" cy="1591.42" r="5.401" style="fill:rgb(42,42,42);"/>
    </g>
    <g transform="matrix(1.38856,0,0,1.38856,320.963,-2045.64)">
        <circle cx="112.248" cy="1591.42" r="5.401" style="fill:rgb(42,42,42);"/>
    </g>
    <g transform="matrix(0.462852,0,0,0.462852,274.511,-734.09)">
        <circle cx="112.248" cy="1591.42" r="5.401" style="fill:rgb(42,42,42);"/>
    </g>
    <g transform="matrix(0.462852,0,0,0.462852,297.399,-715.365)">
        <circle cx="112.248" cy="1591.42" r="5.401" style="fill:rgb(42,42,42);"/>
    </g>
    <g transform="matrix(0.462852,0,0,0.462852,261.071,-729.09)">
        <circle cx="112.248" cy="1591.42" r="5.401" style="fill:rgb(42,42,42);"/>
    </g>
    <g transform="matrix(0.462852,0,0,0.462852,78.4664,-669.635)">
        <circle cx="112.248" cy="1591.42" r="5.401" style="fill:rgb(42,42,42);"/>
    </g>
    <g transform="matrix(0.462852,0,0,0.462852,86.1518,-602.786)">
        <circle cx="112.248" cy="1591.42" r="5.401" style="fill:rgb(42,42,42);"/>
    </g>
    <g transform="matrix(0.462852,0,0,0.462852,520.071,-521.734)">
        <circle cx="112.248" cy="1591.42" r="5.401" style="fill:rgb(42,42,42);"/>
    </g>
    <g transform="matrix(0.462852,0,0,0.462852,499.127,-567.456)">
        <circle cx="112.248" cy="1591.42" r="5.401" style="fill:rgb(42,42,42);"/>
    </g>
    <g transform="matrix(0.462852,0,0,0.462852,395.025,-613.086)">
        <circle cx="112.248" cy="1591.42" r="5.401" style="fill:rgb(42,42,42);"/>
    </g>
    <g transform="matrix(0.462852,0,0,0.462852,395.025,-597.452)">
        <circle cx="112.248" cy="1591.42" r="5.401" style="fill:rgb(42,42,42);"/>
    </g>
    <g transform="matrix(0.462852,0,0,0.462852,-36.0409,-431.258)">
        <circle cx="112.248" cy="1591.42" r="5.401" style="fill:rgb(42,42,42);"/>
    </g>
    <g transform="matrix(0.462852,0,0,0.462852,70.9664,-309.909)">
        <circle cx="112.248" cy="1591.42" r="5.401" style="fill:rgb(42,42,42);"/>
    </g>
    <g transform="matrix(0.462852,0,0,0.462852,49.3613,-309.909)">
        <circle cx="112.248" cy="1591.42" r="5.401" style="fill:rgb(42,42,42);"/>
    </g>
    <g transform="matrix(0.462852,0,0,0.462852,46.0626,-250.133)">
        <circle cx="112.248" cy="1591.42" r="5.401" style="fill:rgb(42,42,42);"/>
    </g>
    <g transform="matrix(0.462852,0,0,0.462852,38.9447,-262.021)">
        <circle cx="112.248" cy="1591.42" r="5.401" style="fill:rgb(42,42,42);"/>
    </g>
    <g transform="matrix(0.462852,0,0,0.462852,37.8012,-247.633)">
        <circle cx="112.248" cy="1591.42" r="5.401" style="fill:rgb(42,42,42);"/>
    </g>
    <g transform="matrix(0.462852,0,0,0.462852,385.415,-208.419)">
        <circle cx="112.248" cy="1591.42" r="5.401" style="fill:rgb(42,42,42);"/>
    </g>
    <g transform="matrix(0.462852,0,0,0.462852,398.555,-213.419)">
        <circle cx="112.248" cy="1591.42" r="5.401" style="fill:rgb(42,42,42);"/>
    </g>
    <g transform="matrix(0.462852,0,0,0.462852,412.371,-230.037)">
        <circle cx="112.248" cy="1591.42" r="5.401" style="fill:rgb(42,42,42);"/>
    </g>
    <g transform="matrix(0.462852,0,0,0.462852,300.621,-224.002)">
        <circle cx="112.248" cy="1591.42" r="5.401" style="fill:rgb(42,42,42);"/>
    </g>
    <g transform="matrix(0.462852,0,0,0.462852,484.985,-299.98)">
        <circle cx="112.248" cy="1591.42" r="5.401" style="fill:rgb(42,42,42);"/>
    </g>
    <g transform="matrix(0.462852,0,0,0.462852,489.985,-313.304)">
        <circle cx="112.248" cy="1591.42" r="5.401" style="fill:rgb(42,42,42);"/>
    </g>
    <g transform="matrix(0.462852,0,0,0.462852,75.9664,-612.381)">
        <circle cx="112.248" cy="1591.42" r="5.401" style="fill:rgb(42,42,42);"/>
    </g>
</svg>
