<?xml version="1.0" encoding="UTF-8" standalone="no"?>
<!DOCTYPE svg PUBLIC "-//W3C//DTD SVG 1.1//EN" "http://www.w3.org/Graphics/SVG/1.1/DTD/svg11.dtd">
<svg width="100%" height="100%" viewBox="0 0 3628 750" version="1.1" xmlns="http://www.w3.org/2000/svg" xmlns:xlink="http://www.w3.org/1999/xlink" xml:space="preserve" xmlns:serif="http://www.serif.com/" style="fill-rule:evenodd;clip-rule:evenodd;stroke-linejoin:round;stroke-miterlimit:2;">
    <g transform="matrix(1,0,0,1,-250,-137)">
        <g transform="matrix(1,0,0,1,-145.277,143.076)">
            <g transform="matrix(500,0,0,500,4024.67,544.216)">
            </g>
            <text x="1393.57px" y="544.216px" style="font-family:'Roboto-Bold', 'Roboto';font-weight:700;font-size:500px;fill:rgb(42,42,42);">AR<tspan x="2036.88px " y="544.216px ">T</tspan>URAN<tspan x="3688.24px " y="544.216px ">A</tspan></text>
        </g>
        <g transform="matrix(0.920159,0,0,0.920159,-61.158,-37.6789)">
            <path d="M745.695,189.835C970.621,189.835 1153.23,372.447 1153.23,597.374C1153.23,822.3 970.621,1004.91 745.695,1004.91C520.768,1004.91 338.157,822.3 338.157,597.374C338.157,372.447 520.768,189.835 745.695,189.835ZM745.695,298.512C580.749,298.512 446.834,432.428 446.834,597.374C446.834,762.32 580.749,896.235 745.695,896.235C910.641,896.235 1044.56,762.32 1044.56,597.374C1044.56,432.428 910.641,298.512 745.695,298.512Z" style="fill:rgb(79,70,229);"/>
        </g>
        <g transform="matrix(1.0198,0,0,1.0198,-2941.94,-15.5828)">
            <path d="M3693.78,247.679C3842.61,247.679 3963.44,368.51 3963.44,517.339C3963.44,666.169 3842.61,787 3693.78,787C3544.95,787 3424.12,666.169 3424.12,517.339C3424.12,368.51 3544.95,247.679 3693.78,247.679ZM3693.78,321.223C3585.54,321.223 3497.66,409.1 3497.66,517.339C3497.66,625.579 3585.54,713.456 3693.78,713.456C3802.02,713.456 3889.9,625.579 3889.9,517.339C3889.9,409.1 3802.02,321.223 3693.78,321.223Z" style="fill:white;"/>
        </g>
        <g transform="matrix(0.674783,0,0,0.674783,121.817,108.902)">
            <circle cx="745.695" cy="597.374" r="407.538" style="fill:white;"/>
            <clipPath id="_clip1">
                <circle cx="745.695" cy="597.374" r="407.538"/>
            </clipPath>
            <g clip-path="url(#_clip1)">
                <g transform="matrix(1.5113,0,0,1.5113,-4540.35,-184.481)">
                    <path d="M3693.78,247.679C3842.61,247.679 3963.44,368.51 3963.44,517.339C3963.44,666.169 3842.61,787 3693.78,787C3544.95,787 3424.12,666.169 3424.12,517.339C3424.12,368.51 3544.95,247.679 3693.78,247.679ZM3693.78,321.223C3585.54,321.223 3497.66,409.1 3497.66,517.339C3497.66,625.579 3585.54,713.456 3693.78,713.456C3802.02,713.456 3889.9,625.579 3889.9,517.339C3889.9,409.1 3802.02,321.223 3693.78,321.223Z" style="fill:rgb(79,70,229);"/>
                </g>
            </g>
        </g>
    </g>
</svg>
